<mxfile host="app.diagrams.net" agent="Mozilla/5.0 (Windows NT 10.0; Win64; x64) AppleWebKit/537.36 (KHTML, like Gecko) Chrome/131.0.0.0 Safari/537.36 Edg/131.0.0.0" version="25.0.1">
  <diagram name="Page-1" id="CKxvxi5wEnyQEN8zjIUo">
    <mxGraphModel dx="1143" dy="1567" grid="1" gridSize="10" guides="1" tooltips="1" connect="1" arrows="1" fold="1" page="1" pageScale="1" pageWidth="850" pageHeight="1100" math="0" shadow="0">
      <root>
        <mxCell id="0" />
        <mxCell id="1" parent="0" />
        <mxCell id="R4PlsqFEkjt_h0MtWmLM-1" value="user" style="rounded=0;whiteSpace=wrap;html=1;" vertex="1" parent="1">
          <mxGeometry x="170" y="100" width="120" height="60" as="geometry" />
        </mxCell>
        <mxCell id="R4PlsqFEkjt_h0MtWmLM-2" value="foto_Vidio" style="rounded=0;whiteSpace=wrap;html=1;" vertex="1" parent="1">
          <mxGeometry x="450" y="100" width="120" height="60" as="geometry" />
        </mxCell>
        <mxCell id="R4PlsqFEkjt_h0MtWmLM-30" style="edgeStyle=orthogonalEdgeStyle;rounded=0;orthogonalLoop=1;jettySize=auto;html=1;entryX=0.5;entryY=1;entryDx=0;entryDy=0;" edge="1" parent="1" source="R4PlsqFEkjt_h0MtWmLM-3" target="R4PlsqFEkjt_h0MtWmLM-6">
          <mxGeometry relative="1" as="geometry" />
        </mxCell>
        <mxCell id="R4PlsqFEkjt_h0MtWmLM-3" value="Detection" style="rounded=0;whiteSpace=wrap;html=1;" vertex="1" parent="1">
          <mxGeometry x="620" y="320" width="120" height="60" as="geometry" />
        </mxCell>
        <mxCell id="R4PlsqFEkjt_h0MtWmLM-4" value="Lokasi" style="rounded=0;whiteSpace=wrap;html=1;" vertex="1" parent="1">
          <mxGeometry x="720" y="90" width="120" height="60" as="geometry" />
        </mxCell>
        <mxCell id="R4PlsqFEkjt_h0MtWmLM-29" style="edgeStyle=orthogonalEdgeStyle;rounded=0;orthogonalLoop=1;jettySize=auto;html=1;entryX=0.5;entryY=0;entryDx=0;entryDy=0;" edge="1" parent="1" source="R4PlsqFEkjt_h0MtWmLM-5" target="R4PlsqFEkjt_h0MtWmLM-6">
          <mxGeometry relative="1" as="geometry" />
        </mxCell>
        <mxCell id="R4PlsqFEkjt_h0MtWmLM-5" value="Repair" style="rounded=0;whiteSpace=wrap;html=1;" vertex="1" parent="1">
          <mxGeometry x="610" y="-120" width="120" height="60" as="geometry" />
        </mxCell>
        <mxCell id="R4PlsqFEkjt_h0MtWmLM-6" value="Mengkonversi" style="rhombus;whiteSpace=wrap;html=1;" vertex="1" parent="1">
          <mxGeometry x="900" y="80" width="80" height="80" as="geometry" />
        </mxCell>
        <mxCell id="R4PlsqFEkjt_h0MtWmLM-7" value="" style="endArrow=none;html=1;rounded=0;exitX=1;exitY=0.5;exitDx=0;exitDy=0;entryX=0;entryY=0.5;entryDx=0;entryDy=0;" edge="1" parent="1" source="R4PlsqFEkjt_h0MtWmLM-1" target="R4PlsqFEkjt_h0MtWmLM-2">
          <mxGeometry width="50" height="50" relative="1" as="geometry">
            <mxPoint x="440" y="170" as="sourcePoint" />
            <mxPoint x="490" y="120" as="targetPoint" />
          </mxGeometry>
        </mxCell>
        <mxCell id="R4PlsqFEkjt_h0MtWmLM-8" value="" style="endArrow=none;html=1;rounded=0;exitX=1;exitY=0.5;exitDx=0;exitDy=0;entryX=0;entryY=0.5;entryDx=0;entryDy=0;" edge="1" parent="1" source="R4PlsqFEkjt_h0MtWmLM-2" target="R4PlsqFEkjt_h0MtWmLM-4">
          <mxGeometry width="50" height="50" relative="1" as="geometry">
            <mxPoint x="370" y="140" as="sourcePoint" />
            <mxPoint x="460" y="140" as="targetPoint" />
          </mxGeometry>
        </mxCell>
        <mxCell id="R4PlsqFEkjt_h0MtWmLM-9" value="" style="endArrow=none;html=1;rounded=0;exitX=1;exitY=0.5;exitDx=0;exitDy=0;entryX=0;entryY=0.5;entryDx=0;entryDy=0;" edge="1" parent="1" source="R4PlsqFEkjt_h0MtWmLM-2" target="R4PlsqFEkjt_h0MtWmLM-3">
          <mxGeometry width="50" height="50" relative="1" as="geometry">
            <mxPoint x="380" y="150" as="sourcePoint" />
            <mxPoint x="470" y="150" as="targetPoint" />
          </mxGeometry>
        </mxCell>
        <mxCell id="R4PlsqFEkjt_h0MtWmLM-10" value="" style="endArrow=none;html=1;rounded=0;exitX=1;exitY=0.5;exitDx=0;exitDy=0;entryX=0;entryY=0.5;entryDx=0;entryDy=0;" edge="1" parent="1" source="R4PlsqFEkjt_h0MtWmLM-2" target="R4PlsqFEkjt_h0MtWmLM-5">
          <mxGeometry width="50" height="50" relative="1" as="geometry">
            <mxPoint x="390" y="160" as="sourcePoint" />
            <mxPoint x="480" y="160" as="targetPoint" />
          </mxGeometry>
        </mxCell>
        <mxCell id="R4PlsqFEkjt_h0MtWmLM-11" value="" style="endArrow=none;html=1;rounded=0;exitX=1;exitY=0.5;exitDx=0;exitDy=0;entryX=0;entryY=0.5;entryDx=0;entryDy=0;" edge="1" parent="1" source="R4PlsqFEkjt_h0MtWmLM-4" target="R4PlsqFEkjt_h0MtWmLM-6">
          <mxGeometry width="50" height="50" relative="1" as="geometry">
            <mxPoint x="400" y="170" as="sourcePoint" />
            <mxPoint x="490" y="170" as="targetPoint" />
          </mxGeometry>
        </mxCell>
        <mxCell id="R4PlsqFEkjt_h0MtWmLM-12" value="" style="endArrow=none;html=1;rounded=0;entryX=1;entryY=0.5;entryDx=0;entryDy=0;" edge="1" parent="1" target="R4PlsqFEkjt_h0MtWmLM-6">
          <mxGeometry width="50" height="50" relative="1" as="geometry">
            <mxPoint x="1120.727294921875" y="120" as="sourcePoint" />
            <mxPoint x="500" y="180" as="targetPoint" />
          </mxGeometry>
        </mxCell>
        <mxCell id="R4PlsqFEkjt_h0MtWmLM-14" value="Laporam" style="rounded=0;whiteSpace=wrap;html=1;" vertex="1" parent="1">
          <mxGeometry x="1120" y="90" width="120" height="60" as="geometry" />
        </mxCell>
        <mxCell id="R4PlsqFEkjt_h0MtWmLM-15" value="DetectionID" style="ellipse;whiteSpace=wrap;html=1;" vertex="1" parent="1">
          <mxGeometry x="460" y="410" width="110" height="60" as="geometry" />
        </mxCell>
        <mxCell id="R4PlsqFEkjt_h0MtWmLM-16" value="&#xa;ConfidenceLevel&#xa;&#xa;" style="ellipse;whiteSpace=wrap;html=1;" vertex="1" parent="1">
          <mxGeometry x="600" y="450" width="110" height="70" as="geometry" />
        </mxCell>
        <mxCell id="R4PlsqFEkjt_h0MtWmLM-17" value="deskripsi" style="ellipse;whiteSpace=wrap;html=1;aspect=fixed;" vertex="1" parent="1">
          <mxGeometry x="770" y="430" width="80" height="80" as="geometry" />
        </mxCell>
        <mxCell id="R4PlsqFEkjt_h0MtWmLM-19" value="LocationID" style="ellipse;whiteSpace=wrap;html=1;" vertex="1" parent="1">
          <mxGeometry x="650" y="190" width="80" height="60" as="geometry" />
        </mxCell>
        <mxCell id="R4PlsqFEkjt_h0MtWmLM-20" value="Jarak" style="ellipse;whiteSpace=wrap;html=1;" vertex="1" parent="1">
          <mxGeometry x="780" y="200" width="60" height="50" as="geometry" />
        </mxCell>
        <mxCell id="R4PlsqFEkjt_h0MtWmLM-21" value="Alamat" style="ellipse;whiteSpace=wrap;html=1;" vertex="1" parent="1">
          <mxGeometry x="810" y="10" width="60" height="50" as="geometry" />
        </mxCell>
        <mxCell id="R4PlsqFEkjt_h0MtWmLM-22" value="RepairID" style="ellipse;whiteSpace=wrap;html=1;" vertex="1" parent="1">
          <mxGeometry x="680" y="-20" width="60" height="50" as="geometry" />
        </mxCell>
        <mxCell id="R4PlsqFEkjt_h0MtWmLM-23" value="RepairStatus" style="ellipse;whiteSpace=wrap;html=1;" vertex="1" parent="1">
          <mxGeometry x="745" y="-200" width="70" height="50" as="geometry" />
        </mxCell>
        <mxCell id="R4PlsqFEkjt_h0MtWmLM-24" value="EndDate" style="ellipse;whiteSpace=wrap;html=1;" vertex="1" parent="1">
          <mxGeometry x="680" y="-240" width="60" height="40" as="geometry" />
        </mxCell>
        <mxCell id="R4PlsqFEkjt_h0MtWmLM-25" value="StartDate" style="ellipse;whiteSpace=wrap;html=1;" vertex="1" parent="1">
          <mxGeometry x="600" y="-190" width="60" height="40" as="geometry" />
        </mxCell>
        <mxCell id="R4PlsqFEkjt_h0MtWmLM-31" value="" style="endArrow=none;html=1;rounded=0;entryX=0.5;entryY=1;entryDx=0;entryDy=0;exitX=0.5;exitY=0;exitDx=0;exitDy=0;" edge="1" parent="1" source="R4PlsqFEkjt_h0MtWmLM-19" target="R4PlsqFEkjt_h0MtWmLM-4">
          <mxGeometry width="50" height="50" relative="1" as="geometry">
            <mxPoint x="710" y="230" as="sourcePoint" />
            <mxPoint x="760" y="180" as="targetPoint" />
          </mxGeometry>
        </mxCell>
        <mxCell id="R4PlsqFEkjt_h0MtWmLM-32" value="" style="endArrow=none;html=1;rounded=0;entryX=0.5;entryY=1;entryDx=0;entryDy=0;exitX=0.5;exitY=0;exitDx=0;exitDy=0;" edge="1" parent="1" source="R4PlsqFEkjt_h0MtWmLM-20" target="R4PlsqFEkjt_h0MtWmLM-4">
          <mxGeometry width="50" height="50" relative="1" as="geometry">
            <mxPoint x="700" y="200" as="sourcePoint" />
            <mxPoint x="790" y="160" as="targetPoint" />
          </mxGeometry>
        </mxCell>
        <mxCell id="R4PlsqFEkjt_h0MtWmLM-33" value="" style="endArrow=none;html=1;rounded=0;entryX=0.5;entryY=0;entryDx=0;entryDy=0;exitX=0.5;exitY=1;exitDx=0;exitDy=0;" edge="1" parent="1" source="R4PlsqFEkjt_h0MtWmLM-3" target="R4PlsqFEkjt_h0MtWmLM-17">
          <mxGeometry width="50" height="50" relative="1" as="geometry">
            <mxPoint x="710" y="210" as="sourcePoint" />
            <mxPoint x="800" y="170" as="targetPoint" />
          </mxGeometry>
        </mxCell>
        <mxCell id="R4PlsqFEkjt_h0MtWmLM-34" value="" style="endArrow=none;html=1;rounded=0;entryX=0.5;entryY=0;entryDx=0;entryDy=0;exitX=0.5;exitY=1;exitDx=0;exitDy=0;" edge="1" parent="1" source="R4PlsqFEkjt_h0MtWmLM-3" target="R4PlsqFEkjt_h0MtWmLM-16">
          <mxGeometry width="50" height="50" relative="1" as="geometry">
            <mxPoint x="720" y="220" as="sourcePoint" />
            <mxPoint x="810" y="180" as="targetPoint" />
          </mxGeometry>
        </mxCell>
        <mxCell id="R4PlsqFEkjt_h0MtWmLM-35" value="" style="endArrow=none;html=1;rounded=0;entryX=0.5;entryY=1;entryDx=0;entryDy=0;exitX=1;exitY=0;exitDx=0;exitDy=0;" edge="1" parent="1" source="R4PlsqFEkjt_h0MtWmLM-15" target="R4PlsqFEkjt_h0MtWmLM-3">
          <mxGeometry width="50" height="50" relative="1" as="geometry">
            <mxPoint x="730" y="230" as="sourcePoint" />
            <mxPoint x="820" y="190" as="targetPoint" />
          </mxGeometry>
        </mxCell>
        <mxCell id="R4PlsqFEkjt_h0MtWmLM-36" value="" style="endArrow=none;html=1;rounded=0;entryX=0.5;entryY=0;entryDx=0;entryDy=0;" edge="1" parent="1" source="R4PlsqFEkjt_h0MtWmLM-21" target="R4PlsqFEkjt_h0MtWmLM-4">
          <mxGeometry width="50" height="50" relative="1" as="geometry">
            <mxPoint x="820" y="210" as="sourcePoint" />
            <mxPoint x="790" y="160" as="targetPoint" />
          </mxGeometry>
        </mxCell>
        <mxCell id="R4PlsqFEkjt_h0MtWmLM-37" value="1" style="text;html=1;align=center;verticalAlign=middle;whiteSpace=wrap;rounded=0;" vertex="1" parent="1">
          <mxGeometry x="280" y="105" width="60" height="30" as="geometry" />
        </mxCell>
        <mxCell id="R4PlsqFEkjt_h0MtWmLM-39" value="" style="endArrow=none;html=1;rounded=0;entryX=0.5;entryY=1;entryDx=0;entryDy=0;exitX=0.5;exitY=0;exitDx=0;exitDy=0;" edge="1" parent="1">
          <mxGeometry width="50" height="50" relative="1" as="geometry">
            <mxPoint x="830" y="220" as="sourcePoint" />
            <mxPoint x="800" y="170" as="targetPoint" />
          </mxGeometry>
        </mxCell>
        <mxCell id="R4PlsqFEkjt_h0MtWmLM-40" value="M" style="text;html=1;align=center;verticalAlign=middle;whiteSpace=wrap;rounded=0;" vertex="1" parent="1">
          <mxGeometry x="390" y="135" width="60" height="30" as="geometry" />
        </mxCell>
        <mxCell id="R4PlsqFEkjt_h0MtWmLM-41" value="" style="endArrow=none;html=1;rounded=0;entryX=0.5;entryY=1;entryDx=0;entryDy=0;exitX=0.5;exitY=0;exitDx=0;exitDy=0;" edge="1" parent="1" source="R4PlsqFEkjt_h0MtWmLM-5" target="R4PlsqFEkjt_h0MtWmLM-25">
          <mxGeometry width="50" height="50" relative="1" as="geometry">
            <mxPoint x="550" y="-60" as="sourcePoint" />
            <mxPoint x="600" y="-110" as="targetPoint" />
          </mxGeometry>
        </mxCell>
        <mxCell id="R4PlsqFEkjt_h0MtWmLM-42" value="" style="endArrow=none;html=1;rounded=0;entryX=0.5;entryY=1;entryDx=0;entryDy=0;exitX=0.5;exitY=0;exitDx=0;exitDy=0;" edge="1" parent="1" source="R4PlsqFEkjt_h0MtWmLM-5" target="R4PlsqFEkjt_h0MtWmLM-23">
          <mxGeometry width="50" height="50" relative="1" as="geometry">
            <mxPoint x="680" y="-110" as="sourcePoint" />
            <mxPoint x="640" y="-140" as="targetPoint" />
          </mxGeometry>
        </mxCell>
        <mxCell id="R4PlsqFEkjt_h0MtWmLM-43" value="" style="endArrow=none;html=1;rounded=0;entryX=0.5;entryY=0;entryDx=0;entryDy=0;exitX=0.5;exitY=1;exitDx=0;exitDy=0;" edge="1" parent="1" source="R4PlsqFEkjt_h0MtWmLM-5" target="R4PlsqFEkjt_h0MtWmLM-22">
          <mxGeometry width="50" height="50" relative="1" as="geometry">
            <mxPoint x="690" y="-100" as="sourcePoint" />
            <mxPoint x="650" y="-130" as="targetPoint" />
          </mxGeometry>
        </mxCell>
        <mxCell id="R4PlsqFEkjt_h0MtWmLM-44" value="M" style="text;html=1;align=center;verticalAlign=middle;whiteSpace=wrap;rounded=0;" vertex="1" parent="1">
          <mxGeometry x="560" y="100" width="60" height="30" as="geometry" />
        </mxCell>
        <mxCell id="R4PlsqFEkjt_h0MtWmLM-45" value="1" style="text;html=1;align=center;verticalAlign=middle;whiteSpace=wrap;rounded=0;" vertex="1" parent="1">
          <mxGeometry x="670" y="90" width="60" height="30" as="geometry" />
        </mxCell>
        <mxCell id="R4PlsqFEkjt_h0MtWmLM-47" value="N" style="text;html=1;align=center;verticalAlign=middle;whiteSpace=wrap;rounded=0;" vertex="1" parent="1">
          <mxGeometry x="560" y="-100" width="60" height="30" as="geometry" />
        </mxCell>
        <mxCell id="R4PlsqFEkjt_h0MtWmLM-48" value="1" style="text;html=1;align=center;verticalAlign=middle;whiteSpace=wrap;rounded=0;" vertex="1" parent="1">
          <mxGeometry x="600" y="290" width="60" height="30" as="geometry" />
        </mxCell>
        <mxCell id="R4PlsqFEkjt_h0MtWmLM-49" value="1" style="text;html=1;align=center;verticalAlign=middle;whiteSpace=wrap;rounded=0;" vertex="1" parent="1">
          <mxGeometry x="1060" y="90" width="60" height="30" as="geometry" />
        </mxCell>
        <mxCell id="R4PlsqFEkjt_h0MtWmLM-50" value="1" style="text;html=1;align=center;verticalAlign=middle;resizable=0;points=[];autosize=1;strokeColor=none;fillColor=none;" vertex="1" parent="1">
          <mxGeometry x="744" y="318" width="30" height="30" as="geometry" />
        </mxCell>
        <mxCell id="R4PlsqFEkjt_h0MtWmLM-51" value="1" style="text;html=1;align=center;verticalAlign=middle;resizable=0;points=[];autosize=1;strokeColor=none;fillColor=none;" vertex="1" parent="1">
          <mxGeometry x="834" y="98" width="30" height="30" as="geometry" />
        </mxCell>
        <mxCell id="R4PlsqFEkjt_h0MtWmLM-52" value="1" style="text;html=1;align=center;verticalAlign=middle;resizable=0;points=[];autosize=1;strokeColor=none;fillColor=none;" vertex="1" parent="1">
          <mxGeometry x="724" y="-112" width="30" height="30" as="geometry" />
        </mxCell>
        <mxCell id="R4PlsqFEkjt_h0MtWmLM-53" value="" style="endArrow=none;html=1;rounded=0;entryX=0.5;entryY=1;entryDx=0;entryDy=0;exitX=0.5;exitY=0;exitDx=0;exitDy=0;" edge="1" parent="1" source="R4PlsqFEkjt_h0MtWmLM-5" target="R4PlsqFEkjt_h0MtWmLM-24">
          <mxGeometry width="50" height="50" relative="1" as="geometry">
            <mxPoint x="680" y="-110" as="sourcePoint" />
            <mxPoint x="640" y="-140" as="targetPoint" />
          </mxGeometry>
        </mxCell>
        <mxCell id="R4PlsqFEkjt_h0MtWmLM-54" value="ReportId" style="ellipse;whiteSpace=wrap;html=1;" vertex="1" parent="1">
          <mxGeometry x="1120" y="-25" width="80" height="60" as="geometry" />
        </mxCell>
        <mxCell id="R4PlsqFEkjt_h0MtWmLM-55" value="Datetime" style="ellipse;whiteSpace=wrap;html=1;" vertex="1" parent="1">
          <mxGeometry x="1275" width="75" height="60" as="geometry" />
        </mxCell>
        <mxCell id="R4PlsqFEkjt_h0MtWmLM-56" value="UserID" style="ellipse;whiteSpace=wrap;html=1;" vertex="1" parent="1">
          <mxGeometry x="1260" y="210" width="90" height="60" as="geometry" />
        </mxCell>
        <mxCell id="R4PlsqFEkjt_h0MtWmLM-57" value="Status" style="ellipse;whiteSpace=wrap;html=1;" vertex="1" parent="1">
          <mxGeometry x="1320" y="120" width="80" height="60" as="geometry" />
        </mxCell>
        <mxCell id="R4PlsqFEkjt_h0MtWmLM-58" value="" style="endArrow=none;html=1;rounded=0;exitX=1;exitY=0.5;exitDx=0;exitDy=0;" edge="1" parent="1" source="R4PlsqFEkjt_h0MtWmLM-14" target="R4PlsqFEkjt_h0MtWmLM-54">
          <mxGeometry width="50" height="50" relative="1" as="geometry">
            <mxPoint x="1180" y="110" as="sourcePoint" />
            <mxPoint x="1230" y="60" as="targetPoint" />
          </mxGeometry>
        </mxCell>
        <mxCell id="R4PlsqFEkjt_h0MtWmLM-59" value="" style="endArrow=none;html=1;rounded=0;exitX=1;exitY=0.5;exitDx=0;exitDy=0;" edge="1" parent="1" source="R4PlsqFEkjt_h0MtWmLM-14" target="R4PlsqFEkjt_h0MtWmLM-55">
          <mxGeometry width="50" height="50" relative="1" as="geometry">
            <mxPoint x="1250" y="130" as="sourcePoint" />
            <mxPoint x="1189" y="42" as="targetPoint" />
          </mxGeometry>
        </mxCell>
        <mxCell id="R4PlsqFEkjt_h0MtWmLM-60" value="" style="endArrow=none;html=1;rounded=0;entryX=0;entryY=0.5;entryDx=0;entryDy=0;" edge="1" parent="1" source="R4PlsqFEkjt_h0MtWmLM-14" target="R4PlsqFEkjt_h0MtWmLM-57">
          <mxGeometry width="50" height="50" relative="1" as="geometry">
            <mxPoint x="1260" y="140" as="sourcePoint" />
            <mxPoint x="1199" y="52" as="targetPoint" />
          </mxGeometry>
        </mxCell>
        <mxCell id="R4PlsqFEkjt_h0MtWmLM-61" value="" style="endArrow=none;html=1;rounded=0;exitX=0.5;exitY=0;exitDx=0;exitDy=0;entryX=1;entryY=0.75;entryDx=0;entryDy=0;" edge="1" parent="1" source="R4PlsqFEkjt_h0MtWmLM-56" target="R4PlsqFEkjt_h0MtWmLM-14">
          <mxGeometry width="50" height="50" relative="1" as="geometry">
            <mxPoint x="1270" y="150" as="sourcePoint" />
            <mxPoint x="1209" y="62" as="targetPoint" />
          </mxGeometry>
        </mxCell>
      </root>
    </mxGraphModel>
  </diagram>
</mxfile>
